<svg width="27" height="27" viewBox="0 0 27 27" fill="none" xmlns="http://www.w3.org/2000/svg">
<rect x="3.375" y="6.75" width="20.25" height="16.875" rx="2" stroke="#072AC8"/>
<path d="M3.375 10.75C3.375 8.86438 3.375 7.92157 3.96079 7.33579C4.54657 6.75 5.48938 6.75 7.375 6.75H19.625C21.5106 6.75 22.4534 6.75 23.0392 7.33579C23.625 7.92157 23.625 8.86438 23.625 10.75V11.25H3.375V10.75Z" fill="#072AC8"/>
<path d="M7.875 3.375L7.875 6.75" stroke="#072AC8" stroke-linecap="round"/>
<path d="M19.125 3.375L19.125 6.75" stroke="#072AC8" stroke-linecap="round"/>
<rect x="7.875" y="13.5" width="4.5" height="2.25" rx="0.5" fill="#072AC8"/>
<rect x="7.875" y="18" width="4.5" height="2.25" rx="0.5" fill="#072AC8"/>
<rect x="14.625" y="13.5" width="4.5" height="2.25" rx="0.5" fill="#072AC8"/>
<rect x="14.625" y="18" width="4.5" height="2.25" rx="0.5" fill="#072AC8"/>
</svg>
